<?xml version="1.0" standalone="no"?>
<!DOCTYPE svg PUBLIC "-//W3C//DTD SVG 20010904//EN"
 "http://www.w3.org/TR/2001/REC-SVG-20010904/DTD/svg10.dtd">
<svg version="1.0" xmlns="http://www.w3.org/2000/svg"
 width="500.000000pt" height="500.000000pt" viewBox="0 0 500.000000 500.000000"
 preserveAspectRatio="xMidYMid meet">
<metadata>
Created by potrace 1.16, written by Peter Selinger 2001-2019
</metadata>
<g transform="translate(0.000000,500.000000) scale(0.100000,-0.100000)"
fill="#000000" stroke="none">
<path d="M4623 4707 c56 -69 88 -145 88 -212 1 -31 -2 -59 -6 -63 -4 -4 -88
-7 -188 -7 -113 0 -189 -5 -201 -11 -14 -9 8 -12 95 -12 121 -1 239 -25 311
-62 l37 -19 7 35 c26 139 -37 297 -150 376 l-31 22 38 -47z"/>
<path d="M3725 4375 c-263 -42 -504 -133 -965 -366 -326 -165 -547 -325 -776
-561 -434 -449 -714 -966 -890 -1643 -49 -189 -63 -203 -282 -278 -130 -45
-244 -120 -367 -241 -102 -101 -153 -178 -191 -293 -26 -78 -45 -243 -27 -243
5 0 49 25 98 57 109 69 208 116 246 117 16 1 29 5 29 10 0 4 7 5 16 2 9 -3 21
-3 27 1 6 4 20 8 31 9 12 2 48 6 81 10 79 11 252 7 340 -7 76 -13 230 -14 310
-4 28 4 91 8 140 8 84 1 95 -1 165 -35 41 -21 94 -49 118 -63 l42 -27 0 28 c0
50 -48 222 -75 272 -51 94 -173 231 -270 302 -45 33 -185 112 -205 115 -30 5
-110 28 -110 32 0 3 12 39 27 80 58 164 221 468 377 704 190 287 223 320 416
416 l126 63 56 87 c64 99 194 259 258 317 42 38 43 39 14 33 -16 -4 -64 -10
-106 -13 -65 -6 -78 -5 -78 8 0 8 10 19 23 25 45 21 178 134 223 191 25 31 68
103 96 160 43 89 58 109 106 148 131 104 387 204 523 204 54 0 89 -18 89 -46
0 -10 -205 -215 -325 -324 -38 -35 -61 -60 -50 -56 89 33 218 70 310 88 93 19
141 22 315 22 224 -1 323 -16 465 -69 113 -42 105 -42 105 1 0 32 -37 154 -64
214 -5 12 9 23 61 48 38 17 84 34 103 38 19 4 41 10 50 14 25 13 179 34 410
55 111 10 150 27 176 76 33 65 13 103 -46 83 -21 -7 -67 -16 -102 -20 -90 -9
-168 14 -317 92 -303 160 -480 199 -726 159z"/>
<path d="M3767 3228 c10 -17 13 -60 12 -179 0 -58 4 -99 10 -103 13 -9 60 15
137 70 93 66 93 65 37 119 -26 25 -75 59 -107 75 -62 32 -103 40 -89 18z"/>
</g>
</svg>
